<svg width="1200" height="420" viewBox="0 0 1200 420" fill="none" xmlns="http://www.w3.org/2000/svg" role="img" aria-labelledby="title desc">
  <title id="title">Meditrack hero illustration</title>
  <desc id="desc">Illustration professionnelle d'une application de suivi chirurgical avec étapes, rendez-vous et documents.</desc>
  <rect width="1200" height="420" rx="28" fill="#F7FBFF"/>
  <rect x="0" y="0" width="1200" height="420" rx="28" fill="url(#bg)"/>
  <circle cx="1022" cy="78" r="150" fill="#DDF7EE" opacity=".85"/>
  <circle cx="134" cy="356" r="130" fill="#DBEAFE" opacity=".9"/>
  <path d="M70 326C150 264 242 273 328 308C449 357 525 347 640 292C780 225 914 248 1130 311" stroke="#C8E7F6" stroke-width="26" stroke-linecap="round" opacity=".65"/>

  <g transform="translate(92 72)">
    <rect width="455" height="276" rx="24" fill="#FFFFFF" stroke="#DCEAF5"/>
    <rect x="32" y="32" width="142" height="18" rx="9" fill="#153B56"/>
    <rect x="32" y="64" width="264" height="12" rx="6" fill="#A8B8C7"/>
    <rect x="32" y="104" width="391" height="76" rx="18" fill="#F2FAF8" stroke="#CFEDE5"/>
    <circle cx="72" cy="142" r="22" fill="#2FBF8F"/>
    <path d="M62 142L70 150L84 134" stroke="#FFFFFF" stroke-width="6" stroke-linecap="round" stroke-linejoin="round"/>
    <rect x="112" y="125" width="158" height="13" rx="6.5" fill="#153B56"/>
    <rect x="112" y="149" width="226" height="10" rx="5" fill="#8FA3B5"/>
    <rect x="32" y="198" width="112" height="46" rx="14" fill="#EAF2FF"/>
    <rect x="164" y="198" width="112" height="46" rx="14" fill="#FFF5DD"/>
    <rect x="296" y="198" width="127" height="46" rx="14" fill="#EAF8F2"/>
    <rect x="56" y="216" width="63" height="10" rx="5" fill="#2563EB"/>
    <rect x="188" y="216" width="64" height="10" rx="5" fill="#C77D13"/>
    <rect x="320" y="216" width="78" height="10" rx="5" fill="#16845E"/>
  </g>

  <g transform="translate(633 62)">
    <rect width="365" height="296" rx="34" fill="#173B57"/>
    <rect x="24" y="24" width="317" height="248" rx="24" fill="#FFFFFF"/>
    <rect x="58" y="52" width="118" height="14" rx="7" fill="#173B57"/>
    <rect x="58" y="78" width="202" height="9" rx="4.5" fill="#9CAFC0"/>
    <g transform="translate(58 116)">
      <circle cx="18" cy="18" r="18" fill="#2FBF8F"/>
      <path d="M10 18L16 24L27 12" stroke="#FFFFFF" stroke-width="4" stroke-linecap="round" stroke-linejoin="round"/>
      <rect x="52" y="4" width="128" height="11" rx="5.5" fill="#173B57"/>
      <rect x="52" y="25" width="190" height="8" rx="4" fill="#9CAFC0"/>
    </g>
    <g transform="translate(58 176)">
      <circle cx="18" cy="18" r="18" fill="#EAF2FF" stroke="#8BB7FF"/>
      <path d="M18 8V18L25 23" stroke="#2563EB" stroke-width="4" stroke-linecap="round" stroke-linejoin="round"/>
      <rect x="52" y="4" width="146" height="11" rx="5.5" fill="#173B57"/>
      <rect x="52" y="25" width="164" height="8" rx="4" fill="#9CAFC0"/>
    </g>
    <rect x="58" y="238" width="249" height="8" rx="4" fill="#DCEAF5"/>
  </g>

  <g transform="translate(933 118)">
    <rect width="176" height="210" rx="22" fill="#FFFFFF" stroke="#DCEAF5"/>
    <rect x="42" y="34" width="92" height="14" rx="7" fill="#173B57"/>
    <rect x="42" y="62" width="92" height="8" rx="4" fill="#9CAFC0"/>
    <rect x="36" y="98" width="104" height="74" rx="18" fill="#EAF8F2"/>
    <path d="M88 116V154M69 135H107" stroke="#2FBF8F" stroke-width="10" stroke-linecap="round"/>
  </g>

  <g transform="translate(92 24)">
    <rect width="122" height="34" rx="17" fill="#173B57"/>
    <circle cx="22" cy="17" r="8" fill="#2FBF8F"/>
    <text x="40" y="22" fill="#FFFFFF" font-family="Arial, sans-serif" font-size="14" font-weight="700">Meditrack</text>
  </g>

  <text x="92" y="386" fill="#173B57" font-family="Arial, sans-serif" font-size="20" font-weight="700">Suivi clair des étapes, rendez-vous et documents du parcours chirurgical</text>

  <defs>
    <linearGradient id="bg" x1="34" y1="32" x2="1112" y2="440" gradientUnits="userSpaceOnUse">
      <stop stop-color="#F8FCFF"/>
      <stop offset=".52" stop-color="#F2FAF8"/>
      <stop offset="1" stop-color="#EAF2FF"/>
    </linearGradient>
  </defs>
</svg>
